<?xml version="1.0" encoding="UTF-8" standalone="no"?>
<svg width="702px" height="317px" viewBox="0 0 702 317" version="1.1" xmlns="http://www.w3.org/2000/svg" xmlns:xlink="http://www.w3.org/1999/xlink" xmlns:sketch="http://www.bohemiancoding.com/sketch/ns">
    <!-- Generator: Sketch 3.3.3 (12081) - http://www.bohemiancoding.com/sketch -->
    <title>Browser</title>
    <desc>Created with Sketch.</desc>
    <defs></defs>
    <g id="Index" stroke="none" stroke-width="1" fill="none" fill-rule="evenodd" sketch:type="MSPage">
        <g id="Projects" sketch:type="MSLayerGroup" transform="translate(-130.000000, -783.000000)">
            <g id="Project-2" transform="translate(130.000000, 613.000000)" sketch:type="MSShapeGroup">
                <g id="Browser" transform="translate(0.000000, 170.000000)">
                    <path d="M7.00477407,0 C3.13614418,0 0,3.13732342 0,7.00300674 L0,30.1122625 L702,30.1122625 L702,7.00300674 C702,3.13535292 698.870184,0 694.995226,0 L7.00477407,0 Z" id="background" fill="#D4D4D4"></path>
                    <ellipse id="object" fill="#E96E4C" cx="13.9524552" cy="15.0561313" rx="4.10366329" ry="4.10621762"></ellipse>
                    <path d="M26.5370226,19.1623489 C28.8034133,19.1623489 30.6406859,17.3239326 30.6406859,15.0561313 C30.6406859,12.7883299 28.8034133,10.9499136 26.5370226,10.9499136 C24.270632,10.9499136 22.4333593,12.7883299 22.4333593,15.0561313 C22.4333593,17.3239326 24.270632,19.1623489 26.5370226,19.1623489 Z" id="object" fill="#E6AA34"></path>
                    <ellipse id="object" fill="#85C33D" cx="39.12159" cy="15.0561313" rx="4.10366329" ry="4.10621762"></ellipse>
                    <rect id="search" opacity="0.85" fill="#FFFFFF" x="53.0740452" y="7.66493955" width="641.265783" height="14.7823834"></rect>
                    <rect id="browser" fill="#F5F5F5" x="0" y="30.1122625" width="702" height="286.887737"></rect>
                </g>
            </g>
        </g>
    </g>
</svg>