<?xml version="1.0" encoding="UTF-8" standalone="no"?>
<svg width="491px" height="174px" viewBox="0 0 491 174" version="1.1" xmlns="http://www.w3.org/2000/svg" xmlns:xlink="http://www.w3.org/1999/xlink" xmlns:sketch="http://www.bohemiancoding.com/sketch/ns">
    <!-- Generator: Sketch 3.3.3 (12081) - http://www.bohemiancoding.com/sketch -->
    <title>Mountain - Aqua</title>
    <desc>Created with Sketch.</desc>
    <defs></defs>
    <g id="Index" stroke="none" stroke-width="1" fill="none" fill-rule="evenodd" sketch:type="MSPage">
        <g id="Navigation" sketch:type="MSLayerGroup" transform="translate(0.000000, -315.000000)">
            <g id="Mountain---Aqua" transform="translate(0.000000, 315.000000)" sketch:type="MSShapeGroup">
                <path d="M0.54296875,172.769531 L143.128906,38.2773438 L187.425781,66.8632812 L302.644531,0.81640625 L489.359375,172.769531 L0.54296875,172.769531 Z" id="Path-1" fill="#E8F9F8"></path>
                <path d="M2.3125,172.056641 L187.707031,65.9375 L301.902344,41.1542969 L488.511719,172.056641 L2.3125,172.056641 Z" id="Path-4" fill="#BEEDEB"></path>
                <path d="M1.58984375,172.986328 L184.166016,94.3398438 L235.685547,107.208984 L296.582031,56.4042969 L487.554688,172.791016 L1.58984375,172.986328 Z" id="Path-5" fill="#87D3D0"></path>
                <path d="M463.607422,173.847656 C434.53125,173.847656 8.8817842e-15,173.847656 8.8817842e-15,173.847656 L168.957031,131.097656 L225.144531,156.6875 L283.109375,90.4726562 L292.740234,96.2636719 L317.330078,78.4238281 L490.460938,173.847656 C490.460938,173.847656 492.683594,173.847656 463.607422,173.847656 Z" id="Path-6" fill="#58B3AF"></path>
            </g>
        </g>
    </g>
</svg>